<svg xmlns="http://www.w3.org/2000/svg" width="800" height="800" viewBox="0 0 20 20">
  <g fill="none" stroke="#f7fafc" stroke-linecap="round" stroke-linejoin="round" stroke-width="2">
    <path d="M10 1v6"/>
    <path d="m8 5 2 2 2-2M1 18.5c1.5 0 1.5.5 3 .5s1.5-.5 3-.5 1.5.5 3 .5 1.5-.5 3-.5 1.5.5 3 .5 1.5-.5 3-.5M1 14.5c1.5 0 1.5.5 3 .5s1.5-.5 3-.5 1.5.5 3 .5 1.5-.5 3-.5 1.5.5 3 .5 1.5-.5 3-.5M1 10.5c1.5 0 1.5.5 3 .5s1.5-.5 3-.5 1.5.5 3 .5 1.5-.5 3-.5 1.5.5 3 .5 1.5-.5 3-.5" data-name="primary"/></g>
</svg>